<svg width="172" height="25" viewBox="0 0 172 25" fill="none" xmlns="http://www.w3.org/2000/svg">
<path d="M17.104 12.352C18.384 12.7573 19.3867 13.44 20.112 14.4C20.8373 15.3387 21.2 16.5013 21.2 17.888C21.2 19.8507 20.432 21.3653 18.896 22.432C17.3813 23.4773 15.1627 24 12.24 24H0.656V1.6H11.6C14.3307 1.6 16.4213 2.12267 17.872 3.168C19.344 4.21333 20.08 5.632 20.08 7.424C20.08 8.512 19.8133 9.48267 19.28 10.336C18.768 11.1893 18.0427 11.8613 17.104 12.352ZM5.808 5.504V10.784H10.96C12.24 10.784 13.2107 10.56 13.872 10.112C14.5333 9.664 14.864 9.00267 14.864 8.128C14.864 7.25333 14.5333 6.60267 13.872 6.176C13.2107 5.728 12.24 5.504 10.96 5.504H5.808ZM11.856 20.096C13.2213 20.096 14.2453 19.872 14.928 19.424C15.632 18.976 15.984 18.2827 15.984 17.344C15.984 15.488 14.608 14.56 11.856 14.56H5.808V20.096H11.856ZM42.1168 6.784V24H37.3808V21.952C36.7194 22.6987 35.9301 23.2747 35.0128 23.68C34.0954 24.064 33.1034 24.256 32.0368 24.256C29.7754 24.256 27.9834 23.6053 26.6608 22.304C25.3381 21.0027 24.6768 19.072 24.6768 16.512V6.784H29.6688V15.776C29.6688 18.5493 30.8314 19.936 33.1568 19.936C34.3514 19.936 35.3114 19.552 36.0368 18.784C36.7621 17.9947 37.1248 16.832 37.1248 15.296V6.784H42.1168ZM52.5335 24.256C51.1042 24.256 49.7068 24.0853 48.3415 23.744C46.9762 23.3813 45.8882 22.9333 45.0775 22.4L46.7415 18.816C47.5095 19.3067 48.4375 19.712 49.5255 20.032C50.6135 20.3307 51.6802 20.48 52.7255 20.48C54.8375 20.48 55.8935 19.9573 55.8935 18.912C55.8935 18.4213 55.6055 18.0693 55.0295 17.856C54.4535 17.6427 53.5682 17.4613 52.3735 17.312C50.9655 17.0987 49.8028 16.8533 48.8855 16.576C47.9682 16.2987 47.1682 15.808 46.4855 15.104C45.8242 14.4 45.4935 13.3973 45.4935 12.096C45.4935 11.008 45.8028 10.048 46.4215 9.216C47.0615 8.36267 47.9788 7.70133 49.1735 7.232C50.3895 6.76267 51.8188 6.528 53.4615 6.528C54.6775 6.528 55.8828 6.66667 57.0775 6.944C58.2935 7.2 59.2962 7.56267 60.0855 8.032L58.4215 11.584C56.9068 10.7307 55.2535 10.304 53.4615 10.304C52.3948 10.304 51.5948 10.4533 51.0615 10.752C50.5282 11.0507 50.2615 11.4347 50.2615 11.904C50.2615 12.4373 50.5495 12.8107 51.1255 13.024C51.7015 13.2373 52.6188 13.44 53.8775 13.632C55.2855 13.8667 56.4375 14.1227 57.3335 14.4C58.2295 14.656 59.0082 15.136 59.6695 15.84C60.3308 16.544 60.6615 17.5253 60.6615 18.784C60.6615 19.8507 60.3415 20.8 59.7015 21.632C59.0615 22.464 58.1228 23.1147 56.8855 23.584C55.6695 24.032 54.2188 24.256 52.5335 24.256Z" fill="#39B8FF"/>
<path d="M69.4375 3.648H61.5655V1.6H79.6775V3.648H71.8055V24H69.4375V3.648ZM82.543 7.168H84.815V24H82.543V7.168ZM83.695 3.488C83.2257 3.488 82.831 3.328 82.511 3.008C82.191 2.688 82.031 2.304 82.031 1.856C82.031 1.42933 82.191 1.056 82.511 0.735998C82.831 0.415998 83.2257 0.255999 83.695 0.255999C84.1643 0.255999 84.559 0.415998 84.879 0.735998C85.199 1.03466 85.359 1.39733 85.359 1.824C85.359 2.29333 85.199 2.688 84.879 3.008C84.559 3.328 84.1643 3.488 83.695 3.488ZM98.1128 24.16C96.4488 24.16 94.9554 23.7973 93.6328 23.072C92.3314 22.3467 91.3074 21.3333 90.5608 20.032C89.8141 18.7093 89.4408 17.2267 89.4408 15.584C89.4408 13.9413 89.8141 12.4693 90.5608 11.168C91.3074 9.86667 92.3314 8.85333 93.6328 8.128C94.9554 7.40267 96.4488 7.04 98.1128 7.04C99.5634 7.04 100.854 7.328 101.985 7.904C103.137 8.45867 104.043 9.28 104.705 10.368L103.009 11.52C102.454 10.688 101.75 10.0693 100.897 9.664C100.043 9.23733 99.1154 9.024 98.1128 9.024C96.8968 9.024 95.7981 9.30133 94.8168 9.856C93.8568 10.3893 93.0994 11.1573 92.5448 12.16C92.0114 13.1627 91.7448 14.304 91.7448 15.584C91.7448 16.8853 92.0114 18.0373 92.5448 19.04C93.0994 20.0213 93.8568 20.7893 94.8168 21.344C95.7981 21.8773 96.8968 22.144 98.1128 22.144C99.1154 22.144 100.043 21.9413 100.897 21.536C101.75 21.1307 102.454 20.512 103.009 19.68L104.705 20.832C104.043 21.92 103.137 22.752 101.985 23.328C100.833 23.8827 99.5421 24.16 98.1128 24.16ZM115.158 15.552L111.19 19.2V24H108.918V0.255999H111.19V16.352L121.238 7.168H124.054L116.854 14.048L124.726 24H121.942L115.158 15.552ZM142.105 16.288H128.025C128.153 18.0373 128.825 19.456 130.041 20.544C131.257 21.6107 132.793 22.144 134.649 22.144C135.695 22.144 136.655 21.9627 137.529 21.6C138.404 21.216 139.161 20.6613 139.801 19.936L141.081 21.408C140.335 22.304 139.396 22.9867 138.265 23.456C137.156 23.9253 135.929 24.16 134.585 24.16C132.857 24.16 131.321 23.7973 129.977 23.072C128.655 22.3253 127.62 21.3013 126.873 20C126.127 18.6987 125.753 17.2267 125.753 15.584C125.753 13.9413 126.105 12.4693 126.809 11.168C127.535 9.86667 128.516 8.85333 129.753 8.128C131.012 7.40267 132.42 7.04 133.977 7.04C135.535 7.04 136.932 7.40267 138.169 8.128C139.407 8.85333 140.377 9.86667 141.081 11.168C141.785 12.448 142.137 13.92 142.137 15.584L142.105 16.288ZM133.977 8.992C132.356 8.992 130.991 9.51467 129.881 10.56C128.793 11.584 128.175 12.928 128.025 14.592H139.961C139.812 12.928 139.183 11.584 138.073 10.56C136.985 9.51467 135.62 8.992 133.977 8.992ZM155.626 22.976C155.199 23.36 154.666 23.6587 154.026 23.872C153.407 24.064 152.756 24.16 152.074 24.16C150.495 24.16 149.279 23.7333 148.426 22.88C147.572 22.0267 147.146 20.8213 147.146 19.264V9.088H144.138V7.168H147.146V3.488H149.418V7.168H154.538V9.088H149.418V19.136C149.418 20.1387 149.663 20.9067 150.154 21.44C150.666 21.952 151.391 22.208 152.33 22.208C152.799 22.208 153.247 22.1333 153.674 21.984C154.122 21.8347 154.506 21.6213 154.826 21.344L155.626 22.976ZM164.274 24.16C162.908 24.16 161.596 23.968 160.338 23.584C159.1 23.1787 158.13 22.6773 157.426 22.08L158.45 20.288C159.154 20.8427 160.039 21.3013 161.106 21.664C162.172 22.0053 163.282 22.176 164.434 22.176C165.97 22.176 167.1 21.9413 167.826 21.472C168.572 20.9813 168.946 20.2987 168.946 19.424C168.946 18.8053 168.743 18.3253 168.338 17.984C167.932 17.6213 167.42 17.3547 166.802 17.184C166.183 16.992 165.362 16.8107 164.338 16.64C162.972 16.384 161.874 16.128 161.042 15.872C160.21 15.5947 159.495 15.136 158.898 14.496C158.322 13.856 158.034 12.9707 158.034 11.84C158.034 10.432 158.62 9.28 159.794 8.384C160.967 7.488 162.599 7.04 164.69 7.04C165.778 7.04 166.866 7.18933 167.954 7.488C169.042 7.76533 169.938 8.13867 170.642 8.608L169.65 10.432C168.263 9.472 166.61 8.992 164.69 8.992C163.239 8.992 162.14 9.248 161.394 9.76C160.668 10.272 160.306 10.944 160.306 11.776C160.306 12.416 160.508 12.928 160.914 13.312C161.34 13.696 161.863 13.984 162.482 14.176C163.1 14.3467 163.954 14.528 165.042 14.72C166.386 14.976 167.463 15.232 168.274 15.488C169.084 15.744 169.778 16.1813 170.354 16.8C170.93 17.4187 171.218 18.272 171.218 19.36C171.218 20.832 170.599 22.0053 169.362 22.88C168.146 23.7333 166.45 24.16 164.274 24.16Z" fill="black"/>
</svg>
